<svg width="1600" height="900" viewBox="0 0 1600 900" fill="none" xmlns="http://www.w3.org/2000/svg" role="img" aria-labelledby="title desc">
  <title id="title">Asesoría jurídica virtual</title>
  <desc id="desc">Mesa de trabajo legal con documentos, balanza y computador.</desc>
  <rect width="1600" height="900" fill="#EEF4F1"/>
  <path d="M0 686C225 575 421 552 588 616C764 683 916 672 1046 583C1177 493 1361 465 1600 501V900H0V686Z" fill="#DFF2EB"/>
  <rect x="894" y="238" width="338" height="226" rx="24" fill="#FFFFFF" stroke="#DFE7E3" stroke-width="8"/>
  <rect x="948" y="292" width="230" height="20" rx="10" fill="#143D35"/>
  <rect x="948" y="344" width="176" height="18" rx="9" fill="#0F7C72"/>
  <rect x="948" y="394" width="212" height="18" rx="9" fill="#B5893E"/>
  <rect x="324" y="302" width="368" height="450" rx="24" fill="#FFFFFF" stroke="#DFE7E3" stroke-width="8"/>
  <rect x="390" y="380" width="228" height="20" rx="10" fill="#143D35"/>
  <rect x="390" y="438" width="214" height="18" rx="9" fill="#60706B"/>
  <rect x="390" y="488" width="238" height="18" rx="9" fill="#60706B"/>
  <rect x="390" y="538" width="180" height="18" rx="9" fill="#60706B"/>
  <path d="M720 704H1328" stroke="#143D35" stroke-width="24" stroke-linecap="round"/>
  <path d="M1018 704V402" stroke="#143D35" stroke-width="20" stroke-linecap="round"/>
  <path d="M920 448H1116" stroke="#143D35" stroke-width="18" stroke-linecap="round"/>
  <path d="M938 448L878 594H998L938 448Z" fill="#B5893E"/>
  <path d="M1098 448L1038 594H1158L1098 448Z" fill="#B5893E"/>
  <rect x="768" y="692" width="500" height="40" rx="20" fill="#143D35"/>
</svg>
