<svg width="520" height="620" viewBox="0 0 520 620" fill="none" xmlns="http://www.w3.org/2000/svg" role="img" aria-labelledby="title desc">
  <title id="title">Monograma juridico</title>
  <desc id="desc">Marca de agua abstracta para Cardenas Romero Abogados.</desc>
  <path d="M230 548C250 444 277 306 300 170C315 80 331 38 337 20" stroke="#A9C4CC" stroke-width="9" stroke-linecap="round" opacity="0.25"/>
  <path d="M93 238C178 184 276 130 389 134C484 137 508 188 472 246C426 320 274 383 120 415" stroke="#A9C4CC" stroke-width="9" stroke-linecap="round" opacity="0.25"/>
  <path d="M121 414C198 421 273 422 355 418" stroke="#A9C4CC" stroke-width="9" stroke-linecap="round" opacity="0.25"/>
  <path d="M329 32C233 45 137 86 86 160C34 235 41 350 91 447C115 492 154 533 203 557" stroke="#A9C4CC" stroke-width="5" stroke-linecap="round" opacity="0.17"/>
  <path d="M348 46C231 62 124 116 82 211C43 299 61 436 160 524" stroke="#A9C4CC" stroke-width="3" stroke-linecap="round" opacity="0.13"/>
</svg>
