<svg xmlns="http://www.w3.org/2000/svg" viewBox="0 0 920 210" role="img" aria-labelledby="title desc">
  <title id="title">Mucuba Hotel &amp; Glamping</title>
  <desc id="desc">Logo tipográfico de Mucuba Hotel &amp; Glamping Guatavita Cundinamarca</desc>
  <rect width="920" height="210" fill="none"/>
  <g fill="#71795f">
    <path d="M44 167V33h18c21 0 36 9 45 27 11-18 28-27 50-27 32 0 54 22 54 62v72h-31V96c0-23-11-35-29-35-19 0-31 14-31 38v68H89V96c0-23-11-35-29-35h-1v106H44Z"/>
    <path d="M235 169h-21V31h21v138Z"/>
  </g>
  <g fill="#4f5746" font-family="Helvetica Neue, Arial, sans-serif">
    <text x="282" y="82" font-size="48" font-weight="500" letter-spacing="2">MUCUBA HOTEL</text>
    <text x="282" y="138" font-size="48" font-weight="500" letter-spacing="2">&amp; GLAMPING</text>
    <text x="285" y="177" font-size="18" font-weight="700" letter-spacing="9">GUATAVITA · CUNDINAMARCA</text>
  </g>
</svg>
